<svg width="221" height="129" viewBox="0 0 221 129" fill="none" xmlns="http://www.w3.org/2000/svg">
<path d="M1.16695 19.8288C1.14964 9.23717 1.16168 0.502724 1.19378 0.41887C1.23978 0.298563 3.61959 0.266515 12.5255 0.266515H23.7989L24.2768 0.784521C29.6811 6.64309 31.1958 18.8655 27.6187 27.7513C24.4218 35.6929 17.8435 39.0608 5.49174 39.0798L1.19846 39.0865L1.16695 19.8288Z" fill="#2C2E35"/>
<path fill-rule="evenodd" clip-rule="evenodd" d="M38.7444 1.69133C38.3676 1.0429 38.0593 0.457018 38.0593 0.3895C38.0593 0.30758 42.5661 0.266515 51.5669 0.266515H65.0742L65.0158 0.540754C64.9837 0.691531 61.8831 8.60335 58.1255 18.1225C54.3679 27.6416 50.9323 36.3522 50.4909 37.4794C49.0526 41.1517 47.8679 43.3112 46.2494 45.211C45.8122 45.7242 45.449 46.0469 45.5075 46.2492C45.6201 46.6389 47.2974 46.5823 53.0245 46.5823C58.8668 46.5823 60.3977 46.6483 60.5531 46.2207C60.6267 46.0183 60.3919 45.7052 60.1605 45.2221C58.7045 42.1828 59.1542 38.5941 61.8229 31.9563L62.2884 30.7984L73.71 30.7673C82.7541 30.7427 85.1578 30.768 85.2576 30.8892C85.4253 31.0928 86.7318 34.4787 87.2918 36.1613C88.6473 40.2331 88.8081 43.2316 87.7916 45.4822C87.6379 45.8224 87.4592 46.0583 87.5112 46.2215C87.6438 46.6375 89.2741 46.5823 96.632 46.5823C103.752 46.5823 105.593 46.6333 105.692 46.2457C105.736 46.0713 105.428 45.8081 105.089 45.4115C103.696 43.7792 102.31 41.3493 100.857 37.9895C99.1543 34.0503 85.6637 0.451275 85.7507 0.364861C85.8057 0.310258 92.4716 0.27943 100.564 0.29651L115.277 0.327457V19.2194C115.277 34.012 115.242 38.3811 115.117 39.3547C114.801 41.8223 114.131 43.9485 113.183 45.4994C112.972 45.8449 112.76 46.0809 112.807 46.242C112.921 46.6308 114.547 46.5823 121.349 46.5823C128.208 46.5823 129.783 46.623 129.885 46.2561C129.925 46.1135 129.743 45.9093 129.562 45.6171C127.647 42.5244 127.421 40.7738 127.421 29.0311V19.9507H131.837L151.954 46.5801L159.359 46.5812C166.37 46.5823 166.761 46.5709 166.707 46.3676C166.676 46.2495 161.719 39.9557 155.692 32.3814C146.433 20.7456 144.649 18.6451 145.055 18.0709C145.191 17.8779 145.575 17.8573 146.005 17.705C151.58 15.7315 155.724 11.6831 156.919 7.04385C157.424 5.08104 157.473 4.14058 157.252 0.693108L157.229 0.327457H175.628V19.2804C175.628 37.7721 175.662 40.6442 174.665 43.1043C174.445 43.6493 174.173 44.1741 173.84 44.844C173.512 45.5022 173.19 45.9139 173.286 46.1706C173.473 46.6716 175.256 46.5823 181.711 46.5823C188.504 46.5823 190.128 46.6308 190.242 46.2421C190.289 46.0811 190.077 45.845 189.866 45.4994C188.967 44.0283 188.288 41.9351 187.946 39.574C187.864 39.0058 187.78 36.225 187.747 32.909L187.688 27.2191L190.905 23.7373C192.675 21.8223 194.212 20.2589 194.321 20.263C194.436 20.2674 198.704 25.7808 204.511 33.4245L214.503 46.5784L220.892 46.6433L220.923 62.3967C220.949 75.6685 220.927 78.1502 220.786 78.1502C220.694 78.1502 220.098 77.9053 219.462 77.6061C204.022 70.3388 185.993 78.3809 185.539 92.738C185.268 101.3 188.698 105.36 200.959 110.989C208.971 114.668 210.405 115.712 211.37 118.569C213.338 124.392 209.14 128.301 201.003 128.222L197.095 128.183L195.929 127.776C191.726 126.304 188.035 123.498 185.28 119.678C184.874 119.116 184.624 118.745 184.467 118.781C184.2 118.841 184.198 120.064 184.154 123.492L184.092 128.183H150.377L150.257 127.818C150.187 127.604 150.116 124.321 150.085 119.893L150.032 112.334L157.34 99.9941C167.747 82.4187 168.263 81.6413 171.927 77.9917C172.686 77.2362 173.255 76.795 173.18 76.5404C173.058 76.124 171.214 76.2065 165.666 76.2295L158.088 76.261L158.088 78.1502C158.087 81.672 157.559 82.8533 150.447 95.2725C146.445 102.259 146.209 102.631 145.86 102.498C145.665 102.423 137.268 87.2008 136.394 85.337C134.76 81.8514 134.239 79.2 134.782 77.1298C134.884 76.7416 134.936 76.3735 134.897 76.3119C134.761 76.093 115.833 76.1697 115.748 76.3895C115.699 76.5173 116.012 76.9237 116.713 77.6388C119.834 80.8256 120.504 81.8761 131.039 100.089L138.055 112.217L137.975 119.408C137.931 123.363 137.857 126.955 137.81 127.391L137.725 128.183H108.8L108.193 126.782C107.859 126.011 103.142 114.383 97.7108 100.942C92.2794 87.5017 87.7794 76.4363 87.7109 76.3524C87.6147 76.235 86.4457 76.2001 82.6261 76.2001H77.6665L77.4378 76.7181C77.2432 77.159 60.1106 120.557 57.8904 126.233L57.1277 128.183L45.0175 128.215C37.5058 128.234 32.9074 128.202 32.9074 128.131C32.9074 128.068 33.2996 127.67 33.7792 127.247C45.2301 117.139 45.5935 96.0778 34.5065 85.0973C28.1502 78.8021 20.6681 76.3949 6.90238 76.2163L0.953125 76.1391V46.6433L6.90238 46.5661C13.6107 46.4789 15.6298 46.3173 19.0244 45.5958C39.2856 41.2889 49.0807 19.4812 38.7444 1.69133ZM3.44554 64.0588V63.689C3.38493 63.8461 3.36193 63.9477 3.40062 64.0134C3.41098 64.031 3.42583 64.046 3.44554 64.0588Z" fill="#2C2E35"/>
<path d="M127.389 6.48258C127.371 3.23133 127.384 0.502248 127.416 0.418007C127.463 0.296629 129.24 0.271395 135.972 0.296123L144.468 0.327457L144.674 1.18064C146.409 8.35277 141.741 12.3913 131.714 12.3932L127.421 12.3939L127.389 6.48258Z" fill="#2C2E35"/>
<path d="M187.967 15.353C187.778 15.3169 187.585 0.892389 187.767 0.41887C187.839 0.233009 201.266 0.192659 201.381 0.377925C201.491 0.554144 188.195 15.3968 187.967 15.353Z" fill="#2C2E35"/>
<path d="M202.492 11.3922C202.492 11.306 204.776 8.7668 207.568 5.74944L212.644 0.263331L220.892 0.327457L220.923 17.3847C220.94 26.7661 220.91 34.4856 220.856 34.539C220.747 34.6476 202.492 11.6387 202.492 11.3922Z" fill="#2C2E35"/>
<path d="M65.3521 22.9365C65.2935 22.8422 73.1004 2.10013 73.3456 1.69865C73.49 1.4622 73.8934 1.63259 74.0666 2.00336C74.5601 3.06008 82.1962 22.8745 82.143 22.9601C82.0505 23.1088 65.4447 23.0853 65.3521 22.9365Z" fill="#2C2E35"/>
<path d="M197.27 92.3117C196.393 87.7766 199.373 84.0778 204.7 83.0921C210.246 82.0658 216.9 84.6757 220.341 89.2272L220.951 90.0338L220.952 99.5712C220.953 105.183 220.907 109.109 220.842 109.109C220.781 109.109 220.353 108.663 219.891 108.119C217.632 105.455 215.839 104.335 208.503 101.007C199.697 97.0123 197.912 95.6307 197.27 92.3117Z" fill="#2C2E35"/>
<path d="M1.16695 105.94C1.14964 93.8397 1.16461 83.8637 1.20007 83.771C1.29387 83.5261 9.68259 83.658 11.6863 83.9359C23.4076 85.5614 29.1284 92.2668 29.4373 104.742C29.8342 120.778 22.4733 127.907 5.49174 127.933L1.19846 127.94L1.16695 105.94Z" fill="#2C2E35"/>
<path d="M72.712 111.79C72.6534 111.695 80.4603 90.9533 80.7055 90.5518C80.8499 90.3154 81.2533 90.4858 81.4265 90.8566C81.92 91.9133 89.5561 111.728 89.5029 111.813C89.4104 111.962 72.8046 111.939 72.712 111.79Z" fill="#2C2E35"/>
<path d="M66.953 128.132C66.7376 127.786 68.8014 121.288 69.5946 119.815C69.7494 119.528 92.3822 119.457 92.6181 119.743C93.1641 120.406 95.589 127.63 95.416 128.078C95.3387 128.278 67.0771 128.332 66.953 128.132Z" fill="#2C2E35"/>
<path d="M220.585 128.183C220.503 128.133 220.504 128.029 220.589 127.871C220.753 127.567 220.953 127.567 220.953 127.872C220.953 128.14 220.768 128.296 220.585 128.183Z" fill="#2C2E35"/>
</svg>
