<svg width="397" height="284" viewBox="0 0 397 284" fill="none" xmlns="http://www.w3.org/2000/svg">
<path d="M0.0173694 101.144L-3.14976 98.7007L-3.98263 99.7803V101.144H0.0173694ZM0.0173694 101.874H-3.98263V105.874H0.0173694V101.874ZM0.0173694 0.449553V-3.55045H-3.98263V0.449553H0.0173694ZM0.0173694 1.17922H-3.98263V2.41892L-3.28155 3.44133L0.0173694 1.17922ZM21.9074 11.8324V7.83239H17.9074V11.8324H21.9074ZM21.9074 90.4907H17.9074V94.4907H21.9074V90.4907ZM0.395383 78.9619C0.395383 89.9931 -0.170505 94.8387 -3.14976 98.7007L3.1845 103.587C8.08567 97.2337 8.39538 89.5289 8.39538 78.9619H0.395383ZM-3.98263 101.144V101.874H4.01737V101.144H-3.98263ZM0.0173694 105.874H38.1061V97.8735H0.0173694V105.874ZM38.1061 105.874C55.7581 105.874 70.6565 100.553 81.1842 90.8615C91.7427 81.1413 97.5609 67.3346 97.5609 51.0886H89.5609C89.5609 65.3427 84.5071 76.9285 75.7658 84.9758C66.9938 93.0514 54.1648 97.8735 38.1061 97.8735V105.874ZM97.5609 51.0886C97.5609 34.8413 91.7415 21.0678 81.1782 11.3831C70.648 1.72883 55.7505 -3.55045 38.1061 -3.55045V4.44955C54.1723 4.44955 67.0023 9.23971 75.7719 17.2799C84.5083 25.2896 89.5609 36.8357 89.5609 51.0886H97.5609ZM38.1061 -3.55045H0.0173694V4.44955H38.1061V-3.55045ZM-3.98263 0.449553V1.17922H4.01737V0.449553H-3.98263ZM-3.28155 3.44133C-0.519566 7.46922 0.395383 12.2148 0.395383 22.4856H8.39538C8.39538 12.0337 7.55913 5.10459 3.31629 -1.08289L-3.28155 3.44133ZM0.395383 22.4856V78.9619H8.39538V22.4856H0.395383ZM21.9074 15.8324H34.3118V7.83239H21.9074V15.8324ZM34.3118 15.8324C45.6884 15.8324 54.6155 18.6103 60.67 24.0845C66.6523 29.4934 70.4436 38.0931 70.4436 51.0886H78.4436C78.4436 36.5026 74.1356 25.4742 66.0353 18.1504C58.0072 10.8918 46.8683 7.83239 34.3118 7.83239V15.8324ZM70.4436 51.0886C70.4436 64.1632 66.6485 72.7994 60.6658 78.2242C54.6126 83.7128 45.6884 86.4907 34.3118 86.4907V94.4907C46.8683 94.4907 58.0101 91.4312 66.0395 84.1507C74.1393 76.8062 78.4436 65.7413 78.4436 51.0886H70.4436ZM34.3118 86.4907H21.9074V94.4907H34.3118V86.4907ZM25.9074 90.4907V11.8324H17.9074V90.4907H25.9074ZM153.194 0.449553L156.904 -1.0467L155.894 -3.55045H153.194V0.449553ZM138.309 0.449553V-3.55045H135.577L134.583 -1.0052L138.309 0.449553ZM107.371 79.6916L111.089 81.167L111.093 81.1567L111.097 81.1464L107.371 79.6916ZM96.1341 101.144L93.3458 98.2759L92.1341 99.4539V101.144H96.1341ZM96.1341 101.874H92.1341V105.874H96.1341V101.874ZM119.629 101.874V105.874H123.629V101.874H119.629ZM119.629 101.144H123.629V99.8743L122.897 98.8371L119.629 101.144ZM120.943 79.3997L124.676 80.8356L124.684 80.8152L124.692 80.7947L120.943 79.3997ZM123.278 73.1246V69.1246H120.498L119.529 71.7296L123.278 73.1246ZM163.993 73.1246L167.713 71.6539L166.713 69.1246H163.993V73.1246ZM166.474 79.3997L162.754 80.8704L162.756 80.8751L166.474 79.3997ZM168.663 101.144L165.19 99.1593L164.663 100.082V101.144H168.663ZM168.663 101.874H164.663V105.874H168.663V101.874ZM196.391 101.874V105.874H200.391V101.874H196.391ZM196.391 101.144H200.391V99.5536L199.299 98.3974L196.391 101.144ZM184.862 78.9619L188.576 77.4764L188.571 77.4657L184.862 78.9619ZM143.125 21.464V17.464H140.374L139.39 20.0327L143.125 21.464ZM143.854 21.464L147.58 20.009L146.587 17.464H143.854V21.464ZM159.469 61.4499V65.4499H165.326L163.195 59.9948L159.469 61.4499ZM127.802 61.4499L124.067 60.0185L121.985 65.4499H127.802V61.4499ZM153.194 -3.55045H138.309V4.44955H153.194V-3.55045ZM134.583 -1.0052L103.645 78.2368L111.097 81.1464L142.035 1.9043L134.583 -1.0052ZM103.653 78.2162C99.8216 87.8715 97.8207 93.9253 93.3458 98.2759L98.9225 104.012C104.955 98.1471 107.624 89.8993 111.089 81.167L103.653 78.2162ZM92.1341 101.144V101.874H100.134V101.144H92.1341ZM96.1341 105.874H119.629V97.8735H96.1341V105.874ZM123.629 101.874V101.144H115.629V101.874H123.629ZM122.897 98.8371C121.856 97.3613 121.332 95.3322 121.59 92.3087C121.853 89.232 122.903 85.4461 124.676 80.8356L117.21 77.9638C115.334 82.839 113.977 87.4444 113.619 91.6278C113.257 95.8645 113.901 99.9647 116.362 103.451L122.897 98.8371ZM124.692 80.7947L127.027 74.5195L119.529 71.7296L117.194 78.0048L124.692 80.7947ZM123.278 77.1246H163.993V69.1246H123.278V77.1246ZM160.274 74.5952L162.754 80.8704L170.194 77.9291L167.713 71.6539L160.274 74.5952ZM162.756 80.8751C164.529 85.3432 165.667 89.1405 166.062 92.3002C166.456 95.4504 166.069 97.6208 165.19 99.1593L172.136 103.128C174.176 99.5592 174.519 95.4545 174 91.308C173.483 87.1711 172.067 82.6501 170.192 77.9243L162.756 80.8751ZM164.663 101.144V101.874H172.663V101.144H164.663ZM168.663 105.874H196.391V97.8735H168.663V105.874ZM200.391 101.874V101.144H192.391V101.874H200.391ZM199.299 98.3974C194.984 93.829 192.784 87.9957 188.576 77.4764L181.148 80.4475C185.113 90.3589 187.874 97.9515 193.483 103.89L199.299 98.3974ZM188.571 77.4657L156.904 -1.0467L149.485 1.94581L181.152 80.4582L188.571 77.4657ZM143.125 25.464H143.854V17.464H143.125V25.464ZM140.129 22.9191L155.743 62.9049L163.195 59.9948L147.58 20.009L140.129 22.9191ZM159.469 57.4499H127.802V65.4499H159.469V57.4499ZM131.537 62.8812L146.86 22.8954L139.39 20.0327L124.067 60.0185L131.537 62.8812ZM256.137 52.9857L255.185 49.1007L249.068 50.6L253.025 55.4993L256.137 52.9857ZM206.228 0.449553V-3.55045H202.228V0.449553H206.228ZM206.228 1.17922H202.228V2.50237L203.017 3.56452L206.228 1.17922ZM206.228 101.144L202.973 98.8189L202.228 99.862V101.144H206.228ZM206.228 101.874H202.228V105.874H206.228V101.874ZM232.496 101.874V105.874H236.496V101.874H232.496ZM232.496 101.144H236.496V99.9042L235.794 98.8818L232.496 101.144ZM228.118 55.1747V51.1747H224.118V55.1747H228.118ZM237.02 55.1747L240.172 52.7121L238.971 51.1747H237.02V55.1747ZM273.503 101.874L270.351 104.336L271.552 105.874H273.503V101.874ZM295.393 101.874V105.874H299.393V101.874H295.393ZM295.393 101.582H299.393V100.168L298.505 99.0681L295.393 101.582ZM228.118 11.8324V7.83239H224.118V11.8324H228.118ZM228.118 43.7919H224.118V47.7919H228.118V43.7919ZM257.089 56.8707C273.232 52.9142 283.778 42.0446 283.778 27.3014H275.778C275.778 37.3669 268.813 45.7605 255.185 49.1007L257.089 56.8707ZM283.778 27.3014C283.778 17.8319 279.614 9.93282 272.261 4.52416C265.027 -0.797386 254.953 -3.55045 243.149 -3.55045V4.44955C253.818 4.44955 262.059 6.95011 267.521 10.9683C272.865 14.8994 275.778 20.4263 275.778 27.3014H283.778ZM243.149 -3.55045H206.228V4.44955H243.149V-3.55045ZM202.228 0.449553V1.17922H210.228V0.449553H202.228ZM203.017 3.56452C205.947 7.5096 206.751 12.5401 206.751 22.4856H214.751C214.751 12.584 214.096 5.06421 209.438 -1.20607L203.017 3.56452ZM206.751 22.4856V79.3997H214.751V22.4856H206.751ZM206.751 79.3997C206.751 90.1369 205.826 94.8238 202.973 98.8189L209.482 103.469C213.925 97.2485 214.751 90.2608 214.751 79.3997H206.751ZM202.228 101.144V101.874H210.228V101.144H202.228ZM206.228 105.874H232.496V97.8735H206.228V105.874ZM236.496 101.874V101.144H228.496V101.874H236.496ZM235.794 98.8818C233.038 94.8626 232.118 90.1306 232.118 79.3997H224.118C224.118 90.267 224.948 97.2098 229.197 103.406L235.794 98.8818ZM232.118 79.3997V55.1747H224.118V79.3997H232.118ZM228.118 59.1747H237.02V51.1747H228.118V59.1747ZM233.867 57.6373L270.351 104.336L276.655 99.411L240.172 52.7121L233.867 57.6373ZM273.503 105.874H295.393V97.8735H273.503V105.874ZM299.393 101.874V101.582H291.393V101.874H299.393ZM298.505 99.0681L259.248 50.4722L253.025 55.4993L292.281 104.095L298.505 99.0681ZM228.118 15.8324H240.522V7.83239H228.118V15.8324ZM240.522 15.8324C246.669 15.8324 250.965 17.0439 253.623 18.9501C256.07 20.7048 257.536 23.3308 257.536 27.4473H265.536C265.536 21.0566 263.063 15.8751 258.286 12.4491C253.72 9.17474 247.509 7.83239 240.522 7.83239V15.8324ZM257.536 27.4473C257.536 31.4649 256.1 34.3306 253.582 36.299C250.93 38.3724 246.627 39.7919 240.376 39.7919V47.7919C247.697 47.7919 253.974 46.1468 258.509 42.6017C263.178 38.9517 265.536 33.6451 265.536 27.4473H257.536ZM240.376 39.7919H228.118V47.7919H240.376V39.7919ZM232.118 43.7919V11.8324H224.118V43.7919H232.118ZM368.797 21.61L371.706 24.3552L371.711 24.3497L371.716 24.3442L368.797 21.61ZM392 1.17922L394.075 4.59926L396 3.4313V1.17922H392ZM392 0.449553H396V-3.55045H392V0.449553ZM364.565 0.449553V-3.55045H360.565V0.449553H364.565ZM355.663 17.9616L352.719 15.2534L352.71 15.2629L355.663 17.9616ZM326.184 50.213V54.213H327.947L329.136 52.9116L326.184 50.213ZM325.6 50.213H321.6V54.213H325.6V50.213ZM329.978 1.17922L333.277 3.44133L333.978 2.41892V1.17922H329.978ZM329.978 0.449553H333.978V-3.55045H329.978V0.449553ZM303.71 0.449553V-3.55045H299.71V0.449553H303.71ZM303.71 1.17922H299.71V2.41892L300.411 3.44133L303.71 1.17922ZM303.71 101.144L300.411 98.8818L299.71 99.9042V101.144H303.71ZM303.71 101.874H299.71V105.874H303.71V101.874ZM330.124 101.874V105.874H334.124V101.874H330.124ZM330.124 101.144H334.124V99.862L333.379 98.8189L330.124 101.144ZM325.6 67.5791L322.689 64.8356L321.6 65.9911V67.5791H325.6ZM337.567 54.8829L340.722 52.4237L337.855 48.7457L334.656 52.1393L337.567 54.8829ZM374.196 101.874L371.041 104.333L372.242 105.874H374.196V101.874ZM396.962 101.874V105.874H400.962V101.874H396.962ZM396.962 101.582H400.962V100.171L400.077 99.0726L396.962 101.582ZM349.241 42.3326L346.332 39.5873L343.938 42.1246L346.126 44.8416L349.241 42.3326ZM371.716 24.3442C380.326 15.151 385.69 9.68519 394.075 4.59926L389.926 -2.24082C380.507 3.47235 374.488 9.68128 365.877 18.8757L371.716 24.3442ZM396 1.17922V0.449553H388V1.17922H396ZM392 -3.55045H364.565V4.44955H392V-3.55045ZM360.565 0.449553V1.17922H368.565V0.449553H360.565ZM360.565 1.17922C360.565 4.33704 359.201 8.20715 352.719 15.2534L358.606 20.6698C365.55 13.1227 368.565 7.36117 368.565 1.17922H360.565ZM352.71 15.2629L323.231 47.5143L329.136 52.9116L358.615 20.6603L352.71 15.2629ZM326.184 46.213H325.6V54.213H326.184V46.213ZM329.6 50.213V22.6315H321.6V50.213H329.6ZM329.6 22.6315C329.6 12.2073 330.517 7.46628 333.277 3.44133L326.679 -1.08289C322.434 5.10753 321.6 12.0412 321.6 22.6315H329.6ZM333.978 1.17922V0.449553H325.978V1.17922H333.978ZM329.978 -3.55045H303.71V4.44955H329.978V-3.55045ZM299.71 0.449553V1.17922H307.71V0.449553H299.71ZM300.411 3.44133C303.192 7.49736 304.234 12.2839 304.234 22.6315H312.234C312.234 11.9646 311.233 5.07646 307.009 -1.08289L300.411 3.44133ZM304.234 22.6315V79.5457H312.234V22.6315H304.234ZM304.234 79.5457C304.234 90.0468 303.19 94.8289 300.411 98.8818L307.009 103.406C311.235 97.2434 312.234 90.3508 312.234 79.5457H304.234ZM299.71 101.144V101.874H307.71V101.144H299.71ZM303.71 105.874H330.124V97.8735H303.71V105.874ZM334.124 101.874V101.144H326.124V101.874H334.124ZM333.379 98.8189C330.523 94.8209 329.6 90.1293 329.6 79.5457H321.6C321.6 90.2684 322.428 97.2514 326.869 103.469L333.379 98.8189ZM329.6 79.5457V67.5791H321.6V79.5457H329.6ZM328.511 70.3226L340.478 57.6264L334.656 52.1393L322.689 64.8356L328.511 70.3226ZM334.412 57.342L371.041 104.333L377.351 99.4144L340.722 52.4237L334.412 57.342ZM374.196 105.874H396.962V97.8735H374.196V105.874ZM400.962 101.874V101.582H392.962V101.874H400.962ZM400.077 99.0726L352.357 39.8235L346.126 44.8416L393.847 104.091L400.077 99.0726ZM352.151 45.0778L371.706 24.3552L365.887 18.8647L346.332 39.5873L352.151 45.0778ZM19.2567 281.144L16.0896 278.701L15.2567 279.78V281.144H19.2567ZM19.2567 281.874H15.2567V285.874H19.2567V281.874ZM19.2567 180.45V176.45H15.2567V180.45H19.2567ZM19.2567 181.179H15.2567V182.419L15.9578 183.441L19.2567 181.179ZM41.1468 191.832V187.832H37.1468V191.832H41.1468ZM41.1468 270.491H37.1468V274.491H41.1468V270.491ZM19.6347 258.962C19.6347 269.993 19.0688 274.839 16.0896 278.701L22.4238 283.587C27.325 277.234 27.6347 269.529 27.6347 258.962H19.6347ZM15.2567 281.144V281.874H23.2567V281.144H15.2567ZM19.2567 285.874H57.3454V277.874H19.2567V285.874ZM57.3454 285.874C74.9974 285.874 89.8958 280.553 100.424 270.861C110.982 261.141 116.8 247.335 116.8 231.089H108.8C108.8 245.343 103.746 256.929 95.0051 264.976C86.2331 273.051 73.4041 277.874 57.3454 277.874V285.874ZM116.8 231.089C116.8 214.841 110.981 201.068 100.417 191.383C89.8873 181.729 74.9898 176.45 57.3454 176.45V184.45C73.4117 184.45 86.2416 189.24 95.0112 197.28C103.748 205.29 108.8 216.836 108.8 231.089H116.8ZM57.3454 176.45H19.2567V184.45H57.3454V176.45ZM15.2567 180.45V181.179H23.2567V180.45H15.2567ZM15.9578 183.441C18.7198 187.469 19.6347 192.215 19.6347 202.486H27.6347C27.6347 192.034 26.7984 185.105 22.5556 178.917L15.9578 183.441ZM19.6347 202.486V258.962H27.6347V202.486H19.6347ZM41.1468 195.832H53.5511V187.832H41.1468V195.832ZM53.5511 195.832C64.9278 195.832 73.8548 198.61 79.9093 204.084C85.8916 209.493 89.6829 218.093 89.6829 231.089H97.6829C97.6829 216.503 93.3749 205.474 85.2746 198.15C77.2465 190.892 66.1076 187.832 53.5511 187.832V195.832ZM89.6829 231.089C89.6829 244.163 85.8879 252.799 79.9051 258.224C73.8519 263.713 64.9278 266.491 53.5511 266.491V274.491C66.1076 274.491 77.2494 271.431 85.2788 264.151C93.3786 256.806 97.6829 245.741 97.6829 231.089H89.6829ZM53.5511 266.491H41.1468V274.491H53.5511V266.491ZM45.1468 270.491V191.832H37.1468V270.491H45.1468ZM172.434 180.45L176.143 178.953L175.133 176.45H172.434V180.45ZM157.548 180.45V176.45H154.816L153.822 178.995L157.548 180.45ZM126.61 259.692L130.328 261.167L130.332 261.157L130.336 261.146L126.61 259.692ZM115.373 281.144L112.585 278.276L111.373 279.454V281.144H115.373ZM115.373 281.874H111.373V285.874H115.373V281.874ZM138.869 281.874V285.874H142.869V281.874H138.869ZM138.869 281.144H142.869V279.874L142.137 278.837L138.869 281.144ZM140.182 259.4L143.916 260.836L143.923 260.815L143.931 260.795L140.182 259.4ZM142.517 253.125V249.125H139.738L138.768 251.73L142.517 253.125ZM183.233 253.125L186.953 251.654L185.953 249.125H183.233V253.125ZM185.714 259.4L181.994 260.87L181.996 260.875L185.714 259.4ZM187.903 281.144L184.43 279.159L183.903 280.082V281.144H187.903ZM187.903 281.874H183.903V285.874H187.903V281.874ZM215.63 281.874V285.874H219.63V281.874H215.63ZM215.63 281.144H219.63V279.554L218.538 278.397L215.63 281.144ZM204.101 258.962L207.815 257.476L207.811 257.466L204.101 258.962ZM162.364 201.464V197.464H159.613L158.629 200.033L162.364 201.464ZM163.094 201.464L166.82 200.009L165.826 197.464H163.094V201.464ZM178.709 241.45V245.45H184.565L182.435 239.995L178.709 241.45ZM147.041 241.45L143.306 240.019L141.225 245.45H147.041V241.45ZM172.434 176.45H157.548V184.45H172.434V176.45ZM153.822 178.995L122.884 258.237L130.336 261.146L161.274 181.904L153.822 178.995ZM122.892 258.216C119.061 267.872 117.06 273.925 112.585 278.276L118.162 284.012C124.194 278.147 126.863 269.899 130.328 261.167L122.892 258.216ZM111.373 281.144V281.874H119.373V281.144H111.373ZM115.373 285.874H138.869V277.874H115.373V285.874ZM142.869 281.874V281.144H134.869V281.874H142.869ZM142.137 278.837C141.095 277.361 140.571 275.332 140.829 272.309C141.092 269.232 142.142 265.446 143.916 260.836L136.449 257.964C134.574 262.839 133.216 267.444 132.858 271.628C132.497 275.865 133.14 279.965 135.601 283.451L142.137 278.837ZM143.931 260.795L146.266 254.52L138.768 251.73L136.433 258.005L143.931 260.795ZM142.517 257.125H183.233V249.125H142.517V257.125ZM179.513 254.595L181.994 260.87L189.433 257.929L186.953 251.654L179.513 254.595ZM181.996 260.875C183.769 265.343 184.907 269.14 185.302 272.3C185.695 275.45 185.309 277.621 184.43 279.159L191.376 283.128C193.415 279.559 193.758 275.454 193.24 271.308C192.723 267.171 191.307 262.65 189.432 257.924L181.996 260.875ZM183.903 281.144V281.874H191.903V281.144H183.903ZM187.903 285.874H215.63V277.874H187.903V285.874ZM219.63 281.874V281.144H211.63V281.874H219.63ZM218.538 278.397C214.223 273.829 212.023 267.996 207.815 257.476L200.387 260.447C204.352 270.359 207.113 277.952 212.722 283.89L218.538 278.397ZM207.811 257.466L176.143 178.953L168.724 181.946L200.392 260.458L207.811 257.466ZM162.364 205.464H163.094V197.464H162.364V205.464ZM159.368 202.919L174.983 242.905L182.435 239.995L166.82 200.009L159.368 202.919ZM178.709 237.45H147.041V245.45H178.709V237.45ZM150.776 242.881L166.099 202.895L158.629 200.033L143.306 240.019L150.776 242.881ZM276.695 181.179H272.695V181.535L272.758 181.886L276.695 181.179ZM269.69 202.34L266.265 200.274L266.261 200.281L266.257 200.288L269.69 202.34ZM254.951 227.002V231.002H257.221L258.385 229.054L254.951 227.002ZM254.221 227.002L250.751 228.991L251.904 231.002H254.221V227.002ZM239.92 202.048L236.447 204.032L236.449 204.037L239.92 202.048ZM233.937 181.033L237.806 182.047L237.937 181.548V181.033H233.937ZM233.937 180.45H237.937V176.45H233.937V180.45ZM204.896 180.45V176.45H200.896V180.45H204.896ZM204.896 181.179H200.896V182.866L202.103 184.043L204.896 181.179ZM220.365 202.486L223.815 200.462L223.81 200.453L223.804 200.443L220.365 202.486ZM243.131 241.304H247.131V240.218L246.581 239.28L243.131 241.304ZM238.607 281.144L235.278 278.925L234.607 279.933V281.144H238.607ZM238.607 281.874H234.607V285.874H238.607V281.874ZM265.021 281.874V285.874H269.021V281.874H265.021ZM265.021 281.144H269.021V279.933L268.349 278.925L265.021 281.144ZM260.497 241.304L257.081 239.223L256.497 240.181V241.304H260.497ZM283.7 203.215L287.116 205.296L287.133 205.269L287.149 205.241L283.7 203.215ZM300.482 181.179L303.144 184.165L304.482 182.972V181.179H300.482ZM300.482 180.45H304.482V176.45H300.482V180.45ZM276.695 180.45V176.45H272.695V180.45H276.695ZM272.758 181.886C273.488 185.95 271.838 191.034 266.265 200.274L273.116 204.406C278.634 195.257 281.946 187.792 280.632 180.473L272.758 181.886ZM266.257 200.288L251.518 224.95L258.385 229.054L273.124 204.392L266.257 200.288ZM254.951 223.002H254.221V231.002H254.951V223.002ZM257.692 225.014L243.39 200.059L236.449 204.037L250.751 228.991L257.692 225.014ZM243.393 200.063C241.087 196.028 239.364 192.604 238.384 189.552C237.417 186.54 237.257 184.142 237.806 182.047L230.067 180.02C229.011 184.054 229.508 188.077 230.767 191.997C232.012 195.877 234.083 199.895 236.447 204.032L243.393 200.063ZM237.937 181.033V180.45H229.937V181.033H237.937ZM233.937 176.45H204.896V184.45H233.937V176.45ZM200.896 180.45V181.179H208.896V180.45H200.896ZM202.103 184.043C207.534 189.338 211.395 195.213 216.925 204.528L223.804 200.443C218.244 191.079 213.933 184.404 207.688 178.315L202.103 184.043ZM216.914 204.509L239.68 243.327L246.581 239.28L223.815 200.462L216.914 204.509ZM239.131 241.304V259.4H247.131V241.304H239.131ZM239.131 259.4C239.131 270.018 238.096 274.698 235.278 278.925L241.935 283.363C246.121 277.083 247.131 270.38 247.131 259.4H239.131ZM234.607 281.144V281.874H242.607V281.144H234.607ZM238.607 285.874H265.021V277.874H238.607V285.874ZM269.021 281.874V281.144H261.021V281.874H269.021ZM268.349 278.925C265.531 274.698 264.497 270.018 264.497 259.4H256.497C256.497 270.38 257.506 277.083 261.692 283.363L268.349 278.925ZM264.497 259.4V241.304H256.497V259.4H264.497ZM263.913 243.385L287.116 205.296L280.284 201.134L257.081 239.223L263.913 243.385ZM287.149 205.241C292.49 196.147 296.907 189.725 303.144 184.165L297.821 178.193C290.632 184.6 285.709 191.896 280.251 201.19L287.149 205.241ZM304.482 181.179V180.45H296.482V181.179H304.482ZM300.482 176.45H276.695V184.45H300.482V176.45ZM272.695 180.45V181.179H280.695V180.45H272.695ZM350.028 226.857L348.345 230.485L348.359 230.492L348.373 230.498L350.028 226.857ZM335.873 220.289L337.556 216.661L337.549 216.658L337.541 216.654L335.873 220.289ZM366.227 203.799L362.822 205.899L363.994 207.799H366.227V203.799ZM367.102 203.799V207.799H371.102V203.799H367.102ZM367.102 185.411H371.102V183.285L369.34 182.096L367.102 185.411ZM326.387 235.758L328.081 232.135L328.064 232.127L328.048 232.12L326.387 235.758ZM339.813 242.034L338.119 245.657L338.148 245.671L338.177 245.684L339.813 242.034ZM304.935 254.876L308.256 252.647L307.068 250.876H304.935V254.876ZM304.059 254.876V250.876H300.059V254.876H304.059ZM304.059 273.993H300.059V275.986L301.65 277.186L304.059 273.993ZM334.121 287.771C355.607 287.771 373.875 274.229 373.875 253.271H365.875C365.875 268.503 352.621 279.771 334.121 279.771V287.771ZM373.875 253.271C373.875 246.182 371.872 240.154 367.922 235.087C364.032 230.097 358.449 226.291 351.683 223.215L348.373 230.498C354.449 233.26 358.79 236.385 361.613 240.006C364.375 243.549 365.875 247.808 365.875 253.271H373.875ZM351.711 223.228L337.556 216.661L334.189 223.918L348.345 230.485L351.711 223.228ZM337.541 216.654C333.364 214.737 330.873 212.898 329.426 211.132C328.075 209.484 327.468 207.701 327.468 205.404H319.468C319.468 209.382 320.613 213 323.238 216.203C325.768 219.29 329.479 221.756 334.204 223.925L337.541 216.654ZM327.468 205.404C327.468 201.858 328.911 199.27 331.29 197.46C333.78 195.566 337.528 194.373 342.148 194.373V186.373C336.261 186.373 330.669 187.88 326.446 191.093C322.111 194.391 319.468 199.319 319.468 205.404H327.468ZM342.148 194.373C350.313 194.373 358.186 198.38 362.822 205.899L369.631 201.699C363.469 191.706 352.953 186.373 342.148 186.373V194.373ZM366.227 207.799H367.102V199.799H366.227V207.799ZM371.102 203.799V185.411H363.102V203.799H371.102ZM369.34 182.096C362.747 177.645 352.6 174.552 341.856 174.552V182.552C351.251 182.552 359.783 185.297 364.864 188.727L369.34 182.096ZM341.856 174.552C319.627 174.552 302.394 189.105 302.394 208.907H310.394C310.394 194.56 322.932 182.552 341.856 182.552V174.552ZM302.394 208.907C302.394 222.386 310.261 232.794 324.726 239.397L328.048 232.12C315.661 226.465 310.394 218.485 310.394 208.907H302.394ZM324.693 239.382L338.119 245.657L341.506 238.41L328.081 232.135L324.693 239.382ZM338.177 245.684C342.255 247.512 344.87 249.178 346.467 250.911C347.916 252.482 348.655 254.241 348.655 256.773H356.655C356.655 252.3 355.205 248.586 352.349 245.488C349.641 242.551 345.835 240.35 341.449 238.384L338.177 245.684ZM348.655 256.773C348.655 260.381 347.06 262.967 344.463 264.792C341.737 266.707 337.818 267.804 333.538 267.804V275.804C339.034 275.804 344.675 274.42 349.062 271.338C353.58 268.164 356.655 263.235 356.655 256.773H348.655ZM333.538 267.804C324.679 267.804 315.348 263.217 308.256 252.647L301.613 257.104C309.991 269.592 321.674 275.804 333.538 275.804V267.804ZM304.935 250.876H304.059V258.876H304.935V250.876ZM300.059 254.876V273.993H308.059V254.876H300.059ZM301.65 277.186C310.697 284.011 322.206 287.771 334.121 287.771V279.771C323.855 279.771 314.057 276.525 306.468 270.8L301.65 277.186Z" fill="white"/>
</svg>
