<svg width="221" height="129" viewBox="0 0 221 129" fill="none" xmlns="http://www.w3.org/2000/svg">
<path d="M0.736286 20.3603C0.718977 9.76866 0.731016 1.03422 0.763119 0.950364C0.809119 0.830057 3.18893 0.798009 12.0948 0.798009H23.3682L23.8461 1.31602C29.2504 7.17458 30.7652 19.397 27.188 28.2828C23.9911 36.2244 17.4128 39.5922 5.06107 39.6113L0.767791 39.618L0.736286 20.3603Z" fill="white"/>
<path fill-rule="evenodd" clip-rule="evenodd" d="M38.3137 2.22282C37.9369 1.57439 37.6287 0.988512 37.6287 0.920994C37.6287 0.839074 42.1354 0.798009 51.1362 0.798009H64.6436L64.5852 1.07225C64.5531 1.22303 61.4524 9.13484 57.6948 18.654C53.9373 28.1731 50.5016 36.8837 50.0602 38.0109C48.6219 41.6832 47.4372 43.8427 45.8188 45.7425C45.3815 46.2557 45.0183 46.5784 45.0768 46.7807C45.1894 47.1704 46.8667 47.1138 52.5938 47.1138C58.4362 47.1138 59.967 47.1798 60.1224 46.7522C60.196 46.5498 59.9613 46.2367 59.7298 45.7536C58.2738 42.7143 58.7235 39.1255 61.3922 32.4878L61.8577 31.3299L73.2793 31.2988C82.3234 31.2742 84.7272 31.2995 84.8269 31.4207C84.9946 31.6243 86.3011 35.0102 86.8612 36.6927C88.2167 40.7646 88.3775 43.7631 87.3609 46.0137C87.2072 46.3539 87.0286 46.5898 87.0806 46.753C87.2131 47.169 88.8434 47.1138 96.2013 47.1138C103.321 47.1138 105.162 47.1648 105.261 46.7772C105.305 46.6028 104.997 46.3396 104.659 45.943C103.265 44.3107 101.88 41.8808 100.427 38.521C98.7236 34.5818 85.233 0.982769 85.32 0.896356C85.375 0.841752 92.041 0.810924 100.133 0.828004L114.846 0.858951V19.7509C114.846 34.5434 114.812 38.9126 114.687 39.8862C114.37 42.3538 113.701 44.48 112.753 46.0309C112.541 46.3764 112.329 46.6124 112.376 46.7734C112.49 47.1623 114.116 47.1138 120.918 47.1138C127.777 47.1138 129.352 47.1545 129.455 46.7876C129.495 46.645 129.312 46.4408 129.131 46.1486C127.216 43.0559 126.99 41.3053 126.99 29.5626V20.4822H131.406L151.523 47.1116L158.928 47.1127C165.939 47.1138 166.33 47.1023 166.277 46.8991C166.245 46.7809 161.289 40.4872 155.261 32.9129C146.002 21.2771 144.219 19.1766 144.624 18.6024C144.76 18.4094 145.144 18.3888 145.574 18.2365C151.149 16.263 155.294 12.2146 156.488 7.57535C156.993 5.61253 157.042 4.67207 156.821 1.2246L156.798 0.858951H175.198V19.8119C175.198 38.3035 175.231 41.1757 174.235 43.6358C174.014 44.1808 173.743 44.7056 173.409 45.3755C173.082 46.0337 172.759 46.4454 172.855 46.7021C173.043 47.203 174.826 47.1138 181.281 47.1138C188.073 47.1138 189.698 47.1623 189.811 46.7736C189.859 46.6125 189.647 46.3765 189.435 46.0309C188.536 44.5598 187.858 42.4666 187.515 40.1055C187.433 39.5373 187.35 36.7565 187.316 33.4405L187.258 27.7506L190.475 24.2688C192.244 22.3537 193.781 20.7904 193.89 20.7945C194.005 20.7989 198.274 26.3123 204.08 33.956L214.072 47.1099L220.461 47.1747L220.492 62.9282C220.518 76.2 220.497 78.6817 220.355 78.6817C220.263 78.6817 219.667 78.4368 219.031 78.1376C203.591 70.8703 185.562 78.9124 185.108 93.2695C184.837 101.831 188.268 105.892 200.528 111.521C208.54 115.199 209.974 116.243 210.939 119.1C212.907 124.924 208.709 128.833 200.572 128.753L196.664 128.715L195.499 128.307C191.295 126.836 187.604 124.029 184.849 120.209C184.444 119.647 184.194 119.277 184.036 119.312C183.77 119.372 183.768 120.596 183.723 124.024L183.662 128.715H149.946L149.827 128.349C149.756 128.135 149.685 124.853 149.654 120.425L149.601 112.866L156.909 100.526C167.317 82.9502 167.832 82.1728 171.496 78.5232C172.255 77.7677 172.824 77.3265 172.749 77.0719C172.627 76.6555 170.784 76.738 165.235 76.761L157.658 76.7925L157.657 78.6817C157.656 82.2035 157.129 83.3848 150.016 95.804C146.015 102.79 145.778 103.162 145.429 103.029C145.234 102.955 136.838 87.7323 135.964 85.8684C134.329 82.3829 133.809 79.7315 134.351 77.6613C134.453 77.2731 134.505 76.905 134.467 76.8434C134.331 76.6245 115.402 76.7012 115.318 76.9209C115.268 77.0488 115.582 77.4552 116.282 78.1702C119.403 81.3571 120.073 82.4076 130.609 100.621L137.624 112.748L137.544 119.939C137.501 123.894 137.426 127.487 137.379 127.923L137.294 128.715H108.37L107.763 127.313C107.428 126.542 102.711 114.915 97.2802 101.474C91.8488 88.0332 87.3488 76.9678 87.2802 76.8839C87.184 76.7665 86.015 76.7315 82.1955 76.7315H77.2358L77.0071 77.2495C76.8126 77.6905 59.6799 121.089 57.4597 126.765L56.697 128.715L44.5869 128.746C37.0752 128.765 32.4767 128.733 32.4767 128.662C32.4767 128.599 32.869 128.201 33.3485 127.778C44.7994 117.67 45.1629 96.6093 34.0758 85.6288C27.7195 79.3336 20.2375 76.9264 6.47172 76.7478L0.522461 76.6706V47.1747L6.47172 47.0976C13.18 47.0104 15.1991 46.8488 18.5937 46.1273C38.855 41.8204 48.65 20.0127 38.3137 2.22282ZM3.01488 64.5903V64.2205C2.95426 64.3776 2.93126 64.4792 2.96995 64.5449C2.98032 64.5625 2.99517 64.5775 3.01488 64.5903Z" fill="white"/>
<path d="M126.958 7.01408C126.941 3.76282 126.953 1.03374 126.985 0.949501C127.032 0.828123 128.809 0.80289 135.541 0.827617L144.037 0.858951L144.244 1.71214C145.979 8.88426 141.311 12.9228 131.284 12.9247L126.99 12.9254L126.958 7.01408Z" fill="white"/>
<path d="M187.536 15.8845C187.347 15.8484 187.154 1.42388 187.337 0.950364C187.408 0.764503 200.836 0.724153 200.951 0.909419C201.061 1.08564 187.765 15.9283 187.536 15.8845Z" fill="white"/>
<path d="M202.061 11.9237C202.061 11.8375 204.345 9.2983 207.137 6.28093L212.213 0.794825L220.461 0.858951L220.492 17.9162C220.509 27.2976 220.479 35.0171 220.425 35.0705C220.316 35.1791 202.061 12.1702 202.061 11.9237Z" fill="white"/>
<path d="M64.9214 23.468C64.8628 23.3737 72.6697 2.63162 72.9149 2.23014C73.0594 1.9937 73.4627 2.16408 73.6359 2.53485C74.1294 3.59157 81.7655 23.406 81.7123 23.4916C81.6198 23.6403 65.014 23.6168 64.9214 23.468Z" fill="white"/>
<path d="M196.839 92.8432C195.962 88.308 198.943 84.6093 204.269 83.6236C209.816 82.5973 216.469 85.2072 219.91 89.7587L220.52 90.5653L220.521 100.103C220.522 105.715 220.477 109.64 220.411 109.64C220.35 109.64 219.922 109.195 219.461 108.65C217.202 105.986 215.408 104.866 208.072 101.539C199.266 97.5438 197.481 96.1622 196.839 92.8432Z" fill="white"/>
<path d="M0.736286 106.471C0.718977 94.3712 0.73395 84.3952 0.769408 84.3025C0.863204 84.0576 9.25193 84.1895 11.2557 84.4674C22.977 86.0929 28.6978 92.7983 29.0066 105.273C29.4036 121.309 22.0426 128.438 5.06107 128.464L0.767791 128.471L0.736286 106.471Z" fill="white"/>
<path d="M72.2813 112.321C72.2227 112.227 80.0296 91.4848 80.2748 91.0833C80.4193 90.8469 80.8226 91.0173 80.9958 91.3881C81.4893 92.4448 89.1254 112.259 89.0722 112.345C88.9797 112.494 72.3739 112.47 72.2813 112.321Z" fill="white"/>
<path d="M66.5223 128.664C66.3069 128.317 68.3708 121.819 69.1639 120.347C69.3187 120.059 91.9515 119.988 92.1874 120.274C92.7334 120.937 95.1583 128.161 94.9853 128.609C94.9081 128.809 66.6465 128.863 66.5223 128.664Z" fill="white"/>
<path d="M220.154 128.715C220.072 128.664 220.074 128.56 220.158 128.403C220.322 128.099 220.522 128.099 220.522 128.403C220.522 128.671 220.338 128.827 220.154 128.715Z" fill="white"/>
</svg>
